<?xml version="1.0" encoding="UTF-8" standalone="no"?>
<svg
   xmlns:dc="http://purl.org/dc/elements/1.1/"
   xmlns:cc="http://creativecommons.org/ns#"
   xmlns:rdf="http://www.w3.org/1999/02/22-rdf-syntax-ns#"
   xmlns:svg="http://www.w3.org/2000/svg"
   xmlns="http://www.w3.org/2000/svg"
   xmlns:xlink="http://www.w3.org/1999/xlink"
   xmlns:sodipodi="http://sodipodi.sourceforge.net/DTD/sodipodi-0.dtd"
   xmlns:inkscape="http://www.inkscape.org/namespaces/inkscape"
   width="909.49298"
   height="241.32753"
   id="svg2"
   version="1.1"
   inkscape:version="0.91 r13725"
   sodipodi:docname="leaflet.svg">
  <metadata
     id="metadata122">
    <rdf:RDF>
      <cc:Work
         rdf:about="">
        <dc:format>image/svg+xml</dc:format>
        <dc:type
           rdf:resource="http://purl.org/dc/dcmitype/StillImage" />
        <dc:title></dc:title>
      </cc:Work>
    </rdf:RDF>
  </metadata>
  <sodipodi:namedview
     pagecolor="#ffffff"
     bordercolor="#666666"
     borderopacity="1"
     objecttolerance="10"
     gridtolerance="10"
     guidetolerance="10"
     inkscape:pageopacity="0"
     inkscape:pageshadow="2"
     inkscape:window-width="1135"
     inkscape:window-height="738"
     id="namedview120"
     showgrid="false"
     inkscape:zoom="0.078666667"
     inkscape:cx="432.017"
     inkscape:cy="117.32753"
     inkscape:window-x="0"
     inkscape:window-y="0"
     inkscape:window-maximized="0"
     inkscape:current-layer="svg2"
     fit-margin-top="0"
     fit-margin-left="0"
     fit-margin-right="0"
     fit-margin-bottom="0" />
  <path
     d="m 138.146,154.633 c -16.973,17.26 -34.34,25.889 -52.1,25.889 -5.156,0 -10.116,-0.664 -14.878,-1.988 -4.764,-1.324 -10.564,-3.561 -17.402,-6.713 -6.84,-3.15 -12.874,-5.441 -18.101,-6.875 -9.668,10.6 -18.406,15.898 -26.211,15.898 -2.723,0 -4.979,-0.896 -6.768,-2.686 C 0.895,176.369 0,174.183 0,171.605 c 0,-5.441 2.667,-10.223 8.003,-14.342 5.334,-4.117 12.872,-6.963 22.612,-8.539 4.082,-5.586 6.695,-11.047 7.842,-16.383 1.145,-5.334 2.041,-14.125 2.686,-26.372 1.217,-25.207 7.966,-44.956 20.249,-59.243 12.281,-14.287 25.62,-21.431 40.015,-21.431 9.883,0 17.993,3.134 24.331,9.399 6.338,6.268 9.507,14.271 9.507,24.009 0,11.244 -3.33,21.092 -9.99,29.541 -6.66,8.451 -14.324,12.676 -22.988,12.676 -4.512,0 -8.057,-1.235 -10.635,-3.706 -2.578,-2.471 -3.867,-5.854 -3.867,-10.151 0,-2.219 0.43,-4.797 1.289,-7.734 1.934,2.221 4.367,3.33 7.305,3.33 4.869,0 9.131,-2.9 12.783,-8.701 3.652,-5.801 5.479,-12.711 5.479,-20.732 0,-6.158 -1.396,-11.011 -4.186,-14.556 -2.79,-3.545 -6.617,-5.317 -11.481,-5.317 -5.868,0 -10.428,2.113 -13.683,6.338 -3.254,4.227 -5.525,9.275 -6.813,15.148 -1.289,5.873 -2.662,15.363 -4.119,28.469 -1.457,13.105 -3.892,24.726 -7.303,34.858 -3.413,10.133 -9.787,20.068 -19.125,29.807 6.086,-0.43 11.368,-0.07 15.845,1.074 4.475,1.146 10.885,3.313 19.229,6.498 8.342,3.188 15.522,4.781 21.538,4.781 11.744,0 22.951,-6.016 33.623,-18.047 l 0,12.354 z m 80.244,0 c -9.096,8.953 -17.26,15.559 -24.492,19.818 -7.234,4.26 -15.219,6.393 -23.955,6.393 -9.74,0 -17.601,-3.115 -23.579,-9.346 -5.98,-6.23 -8.97,-14.43 -8.97,-24.6 0,-15.182 5.264,-28.914 15.791,-41.197 10.527,-12.281 22.199,-18.423 35.02,-18.423 6.66,0 11.994,1.719 16.006,5.156 4.01,3.438 6.016,7.949 6.016,13.535 0,14.824 -15.756,26.856 -47.266,36.094 2.863,13.965 10.348,20.947 22.451,20.947 4.727,0 9.238,-1.271 13.535,-3.814 4.297,-2.541 10.777,-8.18 19.443,-16.918 l 0,12.355 z M 162.101,134.76 c 18.332,-5.156 27.5,-14.68 27.5,-28.575 0,-6.875 -2.508,-10.313 -7.52,-10.313 -4.727,0 -9.238,3.599 -13.535,10.796 -4.297,7.197 -6.445,16.562 -6.445,28.092 z m 171.016,19.873 c -11.459,10.887 -19.658,17.977 -24.6,21.27 -4.942,3.293 -9.668,4.941 -14.18,4.941 -11.316,0 -16.65,-9.99 -16.006,-29.971 -7.162,10.242 -13.769,17.797 -19.819,22.666 -6.053,4.869 -12.3,7.305 -18.745,7.305 -6.303,0 -11.655,-2.955 -16.06,-8.863 -4.405,-5.908 -6.606,-13.158 -6.606,-21.752 0,-10.742 2.954,-20.982 8.862,-30.723 5.908,-9.738 13.481,-17.617 22.72,-23.633 9.239,-6.016 17.402,-9.023 24.492,-9.023 8.951,0 15.217,4.119 18.799,12.354 l 21.956,-12.139 6.027,0 -9.475,31.476 c -4.881,15.828 -7.321,26.679 -7.321,32.551 0,6.157 2.182,9.235 6.549,9.235 2.792,0 5.87,-1.486 9.233,-4.459 3.363,-2.971 8.088,-7.5 14.173,-13.588 l 0,12.353 z m -78.633,5.908 c 7.16,0 13.911,-6.105 20.249,-18.316 6.338,-12.209 9.507,-23.471 9.507,-33.784 0,-4.01 -0.896,-7.144 -2.686,-9.399 -1.791,-2.256 -4.189,-3.384 -7.197,-3.384 -7.162,0 -13.948,6.088 -20.356,18.262 -6.41,12.176 -9.614,23.383 -9.614,33.624 0,3.867 0.948,7 2.847,9.398 1.895,2.4 4.312,3.599 7.25,3.599 z m 165.752,-5.908 c -7.439,8.379 -14.808,14.842 -22.104,19.389 -7.296,4.547 -13.806,6.822 -19.529,6.822 -2.719,0 -6.438,-1.036 -11.158,-3.104 -3.021,15.748 -5.682,32.752 -7.983,51.008 -7.456,1.004 -16.417,2.545 -26.882,4.625 2.291,-19.623 6.266,-45.082 11.922,-76.376 -0.789,-1.359 -2.186,-4.798 -4.189,-10.313 l -7.196,7.949 -2.471,0 0,-9.668 20.479,-21.235 c 3.892,-19.215 7.056,-33.121 9.492,-41.715 2.434,-8.594 5.836,-18.101 10.205,-28.521 4.367,-10.42 7.125,-16.398 8.271,-17.939 1.145,-1.539 3.921,-3.008 8.325,-4.404 4.404,-1.396 9.112,-2.721 14.126,-3.975 5.012,-1.252 7.697,-1.88 8.057,-1.88 2.721,0 4.941,1.771 6.66,5.313 1.719,3.542 2.578,8.209 2.578,14.003 0,10.017 -2.644,19.675 -7.931,28.975 -5.287,9.301 -15.288,20.746 -30.004,34.338 l -9.028,44.896 c 3.501,7.51 8.756,11.264 15.762,11.264 10.007,0 20.874,-7.268 32.598,-21.807 l 0,12.355 z M 384.159,93.405 c 8.373,-7.305 14.938,-15.164 19.699,-23.579 4.76,-8.416 7.14,-16.169 7.14,-23.26 0,-3.008 -0.554,-5.479 -1.66,-7.412 -1.107,-1.934 -2.48,-2.9 -4.122,-2.9 -3.142,0 -6.338,4.121 -9.586,12.36 -3.25,8.239 -7.073,23.169 -11.471,44.791 z m 107.083,61.228 c -9.74,8.953 -18.28,15.559 -25.62,19.818 -7.342,4.26 -14.341,6.393 -21.001,6.393 -7.664,0 -13.841,-2.971 -18.53,-8.916 -4.691,-5.943 -7.036,-13.928 -7.036,-23.955 0,-15.039 3.258,-33.086 9.775,-54.141 6.516,-21.055 14.43,-40.461 23.74,-58.223 l 27.285,-10.098 c 0.859,-0.285 1.504,-0.43 1.934,-0.43 2.076,0 3.776,1.522 5.103,4.565 1.324,3.045 1.987,7.144 1.987,12.3 0,14.609 -3.367,28.754 -10.098,42.432 -6.732,13.68 -17.26,28.289 -31.582,43.829 -0.574,7.449 -0.859,12.568 -0.859,15.361 0,6.23 1.145,11.172 3.438,14.824 2.291,3.652 5.334,5.479 9.131,5.479 3.867,0 7.984,-1.396 12.354,-4.189 4.367,-2.793 11.027,-8.594 19.98,-17.402 l 0,12.353 z M 450.099,112.63 c 9.094,-10.111 16.471,-21.442 22.129,-33.994 5.656,-12.55 8.486,-23.342 8.486,-32.379 0,-2.654 -0.395,-4.787 -1.182,-6.402 -0.789,-1.613 -1.791,-2.42 -3.008,-2.42 -2.65,0 -6.499,6.598 -11.548,19.794 -5.048,13.196 -10.008,31.665 -14.877,55.401 z m 121.494,42.003 c -9.096,8.953 -17.26,15.559 -24.492,19.818 -7.234,4.26 -15.219,6.393 -23.955,6.393 -9.74,0 -17.601,-3.115 -23.579,-9.346 -5.98,-6.23 -8.97,-14.43 -8.97,-24.6 0,-15.182 5.264,-28.914 15.791,-41.197 10.527,-12.281 22.199,-18.423 35.02,-18.423 6.66,0 11.994,1.719 16.006,5.156 4.01,3.438 6.016,7.949 6.016,13.535 0,14.824 -15.756,26.856 -47.266,36.094 2.863,13.965 10.348,20.947 22.451,20.947 4.727,0 9.238,-1.271 13.535,-3.814 4.297,-2.541 10.777,-8.18 19.443,-16.918 l 0,12.355 z M 515.304,134.76 c 18.332,-5.156 27.5,-14.68 27.5,-28.575 0,-6.875 -2.508,-10.313 -7.52,-10.313 -4.727,0 -9.238,3.599 -13.535,10.796 -4.297,7.197 -6.445,16.562 -6.445,28.092 z m 118.164,19.873 c -9.023,8.953 -16.83,15.559 -23.418,19.818 -6.59,4.26 -12.855,6.393 -18.799,6.393 -6.16,0 -11.155,-2.596 -14.985,-7.789 -3.832,-5.191 -5.747,-12.012 -5.747,-20.463 0,-7.447 1.836,-17.28 5.512,-29.5 l 4.558,-16.263 -8.243,0.43 3.44,-16.865 10.214,-0.43 10.086,-33.516 28.696,-5.89 -11.103,37.364 15.17,-0.859 -3.548,16.543 -16.664,1.289 -7.155,24.071 c -2.487,8.363 -3.729,15.02 -3.729,19.964 0,3.368 0.843,6.109 2.527,8.225 1.686,2.114 3.854,3.171 6.509,3.171 3.658,0 7.28,-1.164 10.865,-3.492 3.585,-2.326 8.857,-7.178 15.814,-14.555 l 0,12.354 z"
     id="path6"
     inkscape:connector-curvature="0"
     style="fill:#6f6f6e" />
  <linearGradient
     id="a"
     gradientUnits="userSpaceOnUse"
     x1="1603.924"
     y1="1483.083"
     x2="1698.0341"
     y2="1483.083"
     gradientTransform="matrix(0.986,0.168,-0.168,0.986,-670.73,-1582.353)">
    <stop
       offset="0"
       stop-color="#89C442"
       id="stop9" />
    <stop
       offset="1"
       stop-color="#74B844"
       id="stop11" />
  </linearGradient>
  <path
     d="m 670.318,96.395 c 2.234,2.608 46.097,17.218 61.347,34.97 15.249,17.754 21.907,33.598 19.754,48.832 -2.149,15.234 -11.468,14.982 -15.532,20.529 -4.068,5.548 -9.689,12.389 -20.484,11.662 -14.139,-0.949 -28.721,-8.015 -39.248,-32.541 -10.528,-24.527 -9.721,-47.567 -8.88,-60.35 0.842,-12.781 3.043,-23.102 3.043,-23.102 z"
     id="path13"
     inkscape:connector-curvature="0"
     style="fill:url(#a)" />
  <linearGradient
     id="b"
     gradientUnits="userSpaceOnUse"
     x1="1606.047"
     y1="1478.166"
     x2="1687.254"
     y2="1478.166"
     gradientTransform="matrix(0.986,0.168,-0.168,0.986,-102.747,-206.353)">
    <stop
       offset="0"
       stop-color="#74B844"
       id="stop16" />
    <stop
       offset="1"
       stop-color="#4A9634"
       id="stop18" />
  </linearGradient>
  <polygon
     points="1239.667,1476.602 1305.357,1574.529 1302.329,1577.914 "
     id="polygon20"
     style="fill:url(#b)"
     transform="translate(-567.983,-1376)" />
  <path
     d="m 419.922,236.713 0.618,-4.337 c 17.52,-9.335 39.344,-12.934 57.105,-21.945 5.328,2.396 7.697,-1.062 13.379,-0.747 2.063,1.861 -2.593,4.344 2.975,3.963 12.655,1.676 24.973,-0.678 37.413,-1.746 13.118,-1.127 26.154,0.129 39.024,-0.631 4.116,-0.244 10.445,-5.931 15.484,-3.102 2.28,4.126 -7.433,4.485 -4.827,9.045 25.759,6.053 90.194,31.682 101.216,3.81 0.15,1.694 -1.924,5.059 1.117,4.583 21.725,-9.726 58.632,-30.711 65.132,-36.211 7.146,-6.045 16.668,-5.854 26,-8 16.828,-3.868 34.771,-7.816 49.336,-16.288 9.002,6.247 27.84,9.36 37.911,7.173 10.517,-2.283 26.821,-19.729 35.549,-25.902 3.429,-2.428 8.456,-7.135 12.139,-4.464 -2.477,1.702 0.444,6.675 -2.6,5.823 -1.588,-3.038 -4.752,0.466 -7.063,-0.121 -8.787,7.207 -17.921,13.959 -26.875,20.945 -4.18,2.561 4.035,5.223 -0.867,6.07 -23.141,4.596 -58.378,-6.927 -72.966,9.064 -23.113,7.906 -44.978,9.914 -67.76,22.197 -13.088,7.057 -29.106,19.897 -42.732,26.648 -2.308,1.145 -5.693,1.549 -8.423,3.224 -3.323,2.04 -4.136,4.603 -6.937,5.206 -6.979,1.504 -21.402,-2.141 -30.477,-3.459 -30.281,-4.402 -62.614,-16.746 -91.187,-18.308 -11.298,-0.618 -24.639,1.171 -37.413,1.745 -27.151,1.222 -44.135,1.87 -65.905,9.188 -8.9,2.995 -22.593,10.932 -28.366,6.577 z"
     id="path22"
     inkscape:connector-curvature="0"
     style="clip-rule:evenodd;fill:#3c3c3b;fill-rule:evenodd" />
  <linearGradient
     id="c"
     gradientUnits="userSpaceOnUse"
     x1="1280.9659"
     y1="1562.8311"
     x2="1438.704"
     y2="1562.8311"
     gradientTransform="matrix(-0.948,0.318,0.318,0.948,1586.299,-1803.134)">
    <stop
       offset="0"
       stop-color="#C1EA71"
       id="stop25" />
    <stop
       offset="1"
       stop-color="#ACDA55"
       id="stop27" />
  </linearGradient>
  <path
     d="m 839.461,0 c -3.051,4.944 -72.601,40.807 -93.476,74.472 -20.873,33.665 -26.828,60.172 -19.26,85.089 7.566,24.915 22.03,23.793 30.275,32.009 8.246,8.219 19.432,18.193 37.299,14.166 23.396,-5.275 45.941,-20.891 57.156,-64.65 11.214,-43.762 3.86,-82.083 -0.879,-103.242 C 845.837,16.687 839.461,0 839.461,0 Z"
     id="path29"
     inkscape:connector-curvature="0"
     style="fill:url(#c)" />
  <linearGradient
     id="d"
     gradientUnits="userSpaceOnUse"
     x1="1284.556"
     y1="1554.3979"
     x2="1422.002"
     y2="1554.3979"
     gradientTransform="matrix(-0.948,0.318,0.318,0.948,2154.282,-427.134)">
    <stop
       offset="0"
       stop-color="#ACDA55"
       id="stop32" />
    <stop
       offset="1"
       stop-color="#89C442"
       id="stop34" />
  </linearGradient>
  <polygon
     points="1406.26,1383.391 1321.922,1564.283 1326.873,1569.254 "
     id="polygon36"
     style="fill:url(#d)"
     transform="translate(-567.983,-1376)" />
  <linearGradient
     id="e"
     gradientUnits="userSpaceOnUse"
     x1="1182.1121"
     y1="576.98999"
     x2="1189.046"
     y2="576.98999"
     gradientTransform="matrix(0.986,0.168,-0.168,0.986,-102.747,-206.353)">
    <stop
       offset="0"
       stop-color="#89C442"
       id="stop41" />
    <stop
       offset="1"
       stop-color="#74B844"
       id="stop43" />
  </linearGradient>
  <linearGradient
     id="f"
     gradientUnits="userSpaceOnUse"
     x1="1182.27"
     y1="576.62799"
     x2="1188.252"
     y2="576.62799"
     gradientTransform="matrix(0.986,0.168,-0.168,0.986,-102.747,-206.353)">
    <stop
       offset="0"
       stop-color="#74B844"
       id="stop48" />
    <stop
       offset="1"
       stop-color="#4A9634"
       id="stop50" />
  </linearGradient>
  <linearGradient
     id="g"
     gradientUnits="userSpaceOnUse"
     x1="1425.042"
     y1="559.62"
     x2="1436.663"
     y2="559.62"
     gradientTransform="matrix(-0.948,0.318,0.318,0.948,2154.282,-427.134)">
    <stop
       offset="0"
       stop-color="#C1EA71"
       id="stop55" />
    <stop
       offset="1"
       stop-color="#ACDA55"
       id="stop57" />
  </linearGradient>
  <linearGradient
     id="h"
     gradientUnits="userSpaceOnUse"
     x1="1425.307"
     y1="558.99902"
     x2="1435.433"
     y2="558.99902"
     gradientTransform="matrix(-0.948,0.318,0.318,0.948,2154.282,-427.134)">
    <stop
       offset="0"
       stop-color="#ACDA55"
       id="stop62" />
    <stop
       offset="1"
       stop-color="#89C442"
       id="stop64" />
  </linearGradient>
  <linearGradient
     id="i"
     gradientUnits="userSpaceOnUse"
     x1="1409.067"
     y1="565.30103"
     x2="1421.354"
     y2="565.30103"
     gradientTransform="matrix(-0.948,0.318,0.318,0.948,2154.282,-427.134)">
    <stop
       offset="0"
       stop-color="#C1EA71"
       id="stop69" />
    <stop
       offset="1"
       stop-color="#ACDA55"
       id="stop71" />
  </linearGradient>
  <linearGradient
     id="j"
     gradientUnits="userSpaceOnUse"
     x1="1418.7841"
     y1="563.802"
     x2="1410.712"
     y2="565.448"
     gradientTransform="matrix(-0.948,0.318,0.318,0.948,2154.282,-427.134)">
    <stop
       offset="0"
       stop-color="#74B844"
       id="stop76" />
    <stop
       offset="1"
       stop-color="#74B844"
       id="stop78" />
  </linearGradient>
  <defs
     id="defs82">
    <rect
       id="k"
       x="920.81299"
       y="774"
       width="128"
       height="128" />
  </defs>
  <clipPath
     id="l">
    <use
       xlink:href="#k"
       overflow="visible"
       id="use86"
       style="overflow:visible"
       x="0"
       y="0"
       width="100%"
       height="100%" />
  </clipPath>
</svg>
