<?xml version="1.0" encoding="UTF-8" standalone="no"?>
<!-- Created with Inkscape (http://www.inkscape.org/) -->

<svg
   xmlns:dc="http://purl.org/dc/elements/1.1/"
   xmlns:cc="http://creativecommons.org/ns#"
   xmlns:rdf="http://www.w3.org/1999/02/22-rdf-syntax-ns#"
   xmlns:svg="http://www.w3.org/2000/svg"
   xmlns="http://www.w3.org/2000/svg"
   xmlns:xlink="http://www.w3.org/1999/xlink"
   xmlns:sodipodi="http://sodipodi.sourceforge.net/DTD/sodipodi-0.dtd"
   xmlns:inkscape="http://www.inkscape.org/namespaces/inkscape"
   width="63.567513mm"
   height="92.735237mm"
   viewBox="0 0 225.23922 328.58942"
   id="svg2"
   version="1.1"
   inkscape:version="0.91 r13725"
   sodipodi:docname="postgis_logo.svg">
  <defs
     id="defs4">
    <linearGradient
       id="linearGradient4987"
       inkscape:collect="always">
      <stop
         id="stop4989"
         offset="0"
         style="stop-color:#5b9cde;stop-opacity:1" />
      <stop
         id="stop4991"
         offset="1"
         style="stop-color:#609fdf;stop-opacity:0.67" />
    </linearGradient>
    <linearGradient
       inkscape:collect="always"
       id="linearGradient4651">
      <stop
         style="stop-color:#418dd9;stop-opacity:1"
         offset="0"
         id="stop4653" />
      <stop
         style="stop-color:#609fdf;stop-opacity:0.67"
         offset="1"
         id="stop4655" />
    </linearGradient>
    <linearGradient
       inkscape:collect="always"
       id="linearGradient4462">
      <stop
         style="stop-color:#888794;stop-opacity:1;"
         offset="0"
         id="stop4464" />
      <stop
         style="stop-color:#888794;stop-opacity:0;"
         offset="1"
         id="stop4466" />
    </linearGradient>
    <linearGradient
       inkscape:collect="always"
       id="linearGradient4426">
      <stop
         style="stop-color:#8b93a1;stop-opacity:1;"
         offset="0"
         id="stop4428" />
      <stop
         style="stop-color:#8b93a1;stop-opacity:0;"
         offset="1"
         id="stop4430" />
    </linearGradient>
    <linearGradient
       inkscape:collect="always"
       id="linearGradient4418">
      <stop
         style="stop-color:#ffffff;stop-opacity:1"
         offset="0"
         id="stop4420" />
      <stop
         style="stop-color:#8b93a1;stop-opacity:1"
         offset="1"
         id="stop4422" />
    </linearGradient>
    <linearGradient
       inkscape:collect="always"
       id="linearGradient4283">
      <stop
         style="stop-color:#ffffff;stop-opacity:1"
         offset="0"
         id="stop4285" />
      <stop
         id="stop4289"
         offset="0.27020332"
         style="stop-color:#dae2ec;stop-opacity:1;" />
      <stop
         style="stop-color:#597caa;stop-opacity:1"
         offset="1"
         id="stop4287" />
    </linearGradient>
    <linearGradient
       id="linearGradient4233"
       inkscape:collect="always">
      <stop
         id="stop4235"
         offset="0"
         style="stop-color:#355d45;stop-opacity:1" />
      <stop
         id="stop4237"
         offset="1"
         style="stop-color:#00ff00;stop-opacity:0;" />
    </linearGradient>
    <linearGradient
       inkscape:collect="always"
       id="linearGradient4217">
      <stop
         style="stop-color:#5aa278;stop-opacity:1"
         offset="0"
         id="stop4219" />
      <stop
         style="stop-color:#00ff00;stop-opacity:0;"
         offset="1"
         id="stop4221" />
    </linearGradient>
    <linearGradient
       inkscape:collect="always"
       xlink:href="#linearGradient4233"
       id="linearGradient4223"
       x1="450.07172"
       y1="328.00388"
       x2="435.96698"
       y2="270.14673"
       gradientUnits="userSpaceOnUse" />
    <linearGradient
       inkscape:collect="always"
       xlink:href="#linearGradient4217"
       id="linearGradient4225"
       x1="397.18466"
       y1="290.52618"
       x2="423.28662"
       y2="270.16904"
       gradientUnits="userSpaceOnUse" />
    <linearGradient
       gradientTransform="translate(-384.68466,-262.39493)"
       inkscape:collect="always"
       xlink:href="#linearGradient4233"
       id="linearGradient4223-5"
       x1="450.07172"
       y1="328.00388"
       x2="435.96698"
       y2="270.14673"
       gradientUnits="userSpaceOnUse" />
    <linearGradient
       gradientTransform="translate(-384.68466,-262.39493)"
       inkscape:collect="always"
       xlink:href="#linearGradient4217"
       id="linearGradient4225-8"
       x1="397.18466"
       y1="290.52618"
       x2="423.28662"
       y2="270.16904"
       gradientUnits="userSpaceOnUse" />
    <linearGradient
       inkscape:collect="always"
       xlink:href="#linearGradient4233"
       id="linearGradient4273"
       gradientUnits="userSpaceOnUse"
       x1="393.50317"
       y1="259.56604"
       x2="421.32413"
       y2="260.50388" />
    <radialGradient
       inkscape:collect="always"
       xlink:href="#linearGradient4283"
       id="radialGradient4281"
       cx="409.16458"
       cy="314.72873"
       fx="409.16458"
       fy="314.72873"
       r="52.079651"
       gradientTransform="matrix(-1.0129652,0.41076435,-0.54505332,-1.3441285,1014.7126,518.36045)"
       gradientUnits="userSpaceOnUse" />
    <radialGradient
       inkscape:collect="always"
       xlink:href="#linearGradient4418"
       id="radialGradient4424"
       cx="427.27414"
       cy="698.05103"
       fx="427.27414"
       fy="698.05103"
       r="73.093956"
       gradientTransform="matrix(-1.0818809,0.12401532,-0.09090562,-0.7930392,1058.0215,999.3018)"
       gradientUnits="userSpaceOnUse" />
    <linearGradient
       inkscape:collect="always"
       xlink:href="#linearGradient4426"
       id="linearGradient4432"
       x1="358.11859"
       y1="607.14886"
       x2="332.51736"
       y2="665.73767"
       gradientUnits="userSpaceOnUse"
       gradientTransform="translate(165.53571,-197.5)" />
    <radialGradient
       inkscape:collect="always"
       xlink:href="#linearGradient4418"
       id="radialGradient4440"
       cx="190.04135"
       cy="668.51221"
       fx="190.04135"
       fy="668.51221"
       r="81.258987"
       gradientTransform="matrix(-0.63856917,-0.02433327,0.01652023,-0.43353434,573.98332,702.78546)"
       gradientUnits="userSpaceOnUse" />
    <linearGradient
       inkscape:collect="always"
       xlink:href="#linearGradient4462"
       id="linearGradient4468"
       x1="477.29007"
       y1="371.69196"
       x2="507.62262"
       y2="371.69196"
       gradientUnits="userSpaceOnUse"
       gradientTransform="translate(-7.8571429,23.214286)" />
    <linearGradient
       inkscape:collect="always"
       xlink:href="#linearGradient4462"
       id="linearGradient4470"
       x1="465.94879"
       y1="362.92856"
       x2="481.23849"
       y2="362.92856"
       gradientUnits="userSpaceOnUse"
       gradientTransform="translate(-7.8571429,23.214286)" />
    <linearGradient
       inkscape:collect="always"
       xlink:href="#linearGradient4462"
       id="linearGradient4478"
       x1="304.82968"
       y1="596.86133"
       x2="321.68945"
       y2="568.57703"
       gradientUnits="userSpaceOnUse"
       gradientTransform="translate(180.63874,-36.901206)" />
    <radialGradient
       inkscape:collect="always"
       xlink:href="#linearGradient4651"
       id="radialGradient4496-2"
       cx="594.13672"
       cy="-163.53847"
       fx="594.13672"
       fy="-163.53847"
       r="2.4253609"
       gradientTransform="matrix(1,0,0,1.5078619,0,83.054953)"
       gradientUnits="userSpaceOnUse" />
    <filter
       inkscape:collect="always"
       style="color-interpolation-filters:sRGB"
       id="filter4953"
       x="-0.13677444"
       width="1.2735488"
       y="-0.16602091"
       height="1.3320417">
      <feGaussianBlur
         inkscape:collect="always"
         stdDeviation="0.3861123"
         id="feGaussianBlur4955" />
    </filter>
    <radialGradient
       inkscape:collect="always"
       xlink:href="#linearGradient4987"
       id="radialGradient4496-2-0"
       cx="594.13672"
       cy="-163.53847"
       fx="594.13672"
       fy="-163.53847"
       r="2.4253609"
       gradientTransform="matrix(1,0,0,1.5078619,0,83.054953)"
       gradientUnits="userSpaceOnUse" />
    <filter
       inkscape:collect="always"
       style="color-interpolation-filters:sRGB"
       id="filter4953-8"
       x="-0.13677444"
       width="1.2735488"
       y="-0.16602091"
       height="1.3320417">
      <feGaussianBlur
         inkscape:collect="always"
         stdDeviation="0.3861123"
         id="feGaussianBlur4955-9" />
    </filter>
  </defs>
  <sodipodi:namedview
     id="base"
     pagecolor="#ffffff"
     bordercolor="#666666"
     borderopacity="1.0"
     inkscape:pageopacity="0.0"
     inkscape:pageshadow="2"
     inkscape:zoom="1.4"
     inkscape:cx="157.15789"
     inkscape:cy="221.72273"
     inkscape:document-units="px"
     inkscape:current-layer="layer1"
     showgrid="false"
     inkscape:window-width="1920"
     inkscape:window-height="1018"
     inkscape:window-x="-8"
     inkscape:window-y="-8"
     inkscape:window-maximized="1"
     fit-margin-top="0"
     fit-margin-left="0"
     fit-margin-right="0"
     fit-margin-bottom="0" />
  <metadata
     id="metadata7">
    <rdf:RDF>
      <cc:Work
         rdf:about="">
        <dc:format>image/svg+xml</dc:format>
        <dc:type
           rdf:resource="http://purl.org/dc/dcmitype/StillImage" />
        <dc:title></dc:title>
      </cc:Work>
    </rdf:RDF>
  </metadata>
  <g
     inkscape:label="Calque 1"
     inkscape:groupmode="layer"
     id="layer1"
     transform="translate(-370.22687,-243.22803)">
    <path
       style="fill:url(#radialGradient4424);fill-opacity:1;stroke:#000000;stroke-opacity:1"
       d="m 515.62292,566.99877 c 11.33423,-2.40181 25.21001,-7.56332 40.25079,-14.97248 9.80202,-4.82851 9.89998,-4.84351 16.1054,-2.46587 4.43936,1.70096 12.55634,1.82209 15.47488,0.23093 2.13627,-1.16468 2.02541,-1.19013 -3.6095,-0.8285 -9.35784,0.60055 -14.64352,-2.16849 -16.31726,-8.54821 -0.4377,-1.66834 -1.00021,-7.98151 -1.25003,-14.02925 -0.90503,-21.90964 -3.99282,-35.79517 -10.34873,-46.53729 -5.85119,-9.88911 -19.98968,-22.77083 -23.14121,-21.08418 -0.76023,0.40686 -5.30597,3.66454 -10.10163,7.23929 -4.79566,3.57473 -10.7669,7.52423 -13.26942,8.77667 -5.74131,2.87334 -12.87808,4.06108 -17.91329,2.98121 -3.64791,-0.78233 -3.75509,-0.88937 -7.3029,-7.29375 -3.09848,-5.59325 -4.05015,-6.69992 -6.82359,-7.93489 -2.90922,-1.29542 -3.22294,-1.69487 -3.22294,-4.10367 0,-1.4677 -0.334,-3.29263 -0.74223,-4.05542 -0.69335,-1.29553 -1.1183,-1.19794 -6.45283,1.48199 -6.00251,3.01548 -13.95069,4.96223 -17.89578,4.38322 -3.38759,-0.49719 -3.77079,1.09672 -4.70067,19.55204 l -0.80455,15.96813 4.67039,5.92321 4.67039,5.92321 -0.4666,14.88807 c -0.41515,13.24625 -0.66483,15.38334 -2.26411,19.37925 -2.21329,5.53006 -2.2153,5.74637 -0.0533,5.74637 0.9593,0 2.09542,0.35124 2.52472,0.78054 0.53515,0.53516 1.47078,0.42243 2.97617,-0.35858 1.94422,-1.00867 2.37151,-1.00999 3.73158,-0.0114 1.83913,1.35022 2.4238,1.60017 5.12845,2.1924 2.93003,0.6416 4.42715,3.37425 4.60035,8.39692 l 0.14885,4.31664 4.71051,-0.29851 c 2.59077,-0.16418 4.929,-0.517 5.19604,-0.78405 0.26705,-0.26704 -0.10622,-2.26716 -0.82947,-4.44469 -2.67487,-8.05327 -0.12642,-20.52457 5.28596,-25.86778 1.33104,-1.31403 2.22497,-3.16095 2.49142,-5.14742 0.4599,-3.42889 2.2004,-3.80935 1.9521,-0.42672 -0.12286,1.67364 0.0946,1.96976 1.13751,1.54872 0.70917,-0.2863 2.65441,-0.71254 4.32275,-0.94718 1.66835,-0.23465 3.94226,-1.09649 5.05315,-1.91521 1.88256,-1.38744 13.35819,-4.29145 17.07408,-4.32075 0.90865,-0.007 2.10303,-0.45195 2.65418,-0.98843 2.29274,-2.2317 6.68963,-5.21838 6.68963,-4.54408 0,0.39998 -1.27564,1.63487 -2.83476,2.74419 l -2.83476,2.01693 3.21393,0 c 2.20188,0 3.21392,0.32428 3.21392,1.02981 0,0.72631 -2.06732,1.30376 -7.01462,1.95933 -8.54548,1.13237 -10.42715,1.55049 -10.42715,2.31705 0,0.32544 1.16009,0.80936 2.57798,1.07536 3.66067,0.68674 4.76096,2.23797 3.6587,5.15819 -0.74522,1.97429 -0.66029,2.59104 0.57266,4.15847 1.9464,2.47446 0.39066,6.76698 -2.20634,6.08762 -1.02065,-0.26701 -1.19048,0.72617 -1.19048,6.9619 0,6.4287 -0.23652,7.72158 -2.03673,11.13329 -1.1202,2.12297 -3.2649,4.9383 -4.766,6.25629 l -2.72927,2.39633 4.14767,0 c 2.28122,0 6.47343,-0.49284 9.31602,-1.09521 z"
       id="path4412"
       inkscape:connector-curvature="0" />
    <path
       style="fill:#8b93a1;fill-opacity:1;stroke:#000000;stroke-opacity:1"
       d="m 448.0733,541.88085 c 1.7555,-4.38515 1.92917,-5.89758 2.15528,-18.76886 l 0.24592,-13.99938 -2.46362,-3.56342 c -1.35499,-1.95988 -2.8375,-3.79448 -3.29447,-4.0769 -0.59571,-0.36817 -0.76404,4.50346 -0.59478,17.2135 0.22852,17.16033 0.18276,17.81183 -1.43152,20.38118 -1.95999,3.11958 -2.06123,3.79169 -0.57115,3.79169 0.60616,0 1.71522,0.8424 2.4646,1.87201 0.74937,1.02961 1.41152,1.88274 1.47143,1.89585 0.0599,0.0131 0.96816,-2.12245 2.01831,-4.74567 z"
       id="path4398"
       inkscape:connector-curvature="0" />
    <path
       style="fill:url(#linearGradient4432);fill-opacity:1;stroke:#000000;stroke-opacity:1"
       d="m 505.18276,474.94324 c 3.55271,-1.067 15.74369,-8.97415 21.81374,-14.14853 2.10611,-1.79535 6.45707,-5.27377 9.66881,-7.72983 l 5.83954,-4.46556 0,-3.68439 c 0,-3.18926 -0.38215,-4.10972 -2.84377,-6.84948 -4.66227,-5.1891 -22.95676,-21.75874 -28.09777,-25.44865 -5.44144,-3.90554 -7.271,-4.02861 -14.38621,-0.96773 l -3.96423,1.70537 0,5.07734 c 0,9.79328 -4.2725,18.31526 -13.75216,27.43021 l -5.21564,5.01498 1.14218,2.73363 c 0.62821,1.50349 1.14219,3.60324 1.14219,4.6661 0,1.47314 0.65075,2.24279 2.73782,3.23805 2.0658,0.98511 3.56096,2.73264 6.09128,7.11948 1.84441,3.19765 3.76896,6.15507 4.27681,6.57204 2.16033,1.7738 9.15986,1.65538 15.54743,-0.26303 z"
       id="path4390"
       inkscape:connector-curvature="0" />
    <path
       style="fill:url(#radialGradient4440);fill-opacity:1;stroke:#000000;stroke-opacity:1"
       d="m 399.43945,336.79102 c 0.01,0.0192 0.21989,0.52248 -0.0879,1.49218 -0.26587,0.83767 -3.13269,3.54068 -6.37109,6.00586 -14.15148,10.77258 -20.61227,22.16335 -20.67383,36.45508 -0.0159,3.6862 0.52034,8.55614 1.25195,11.375 1.79296,6.90825 6.79017,16.13927 11.08399,20.47852 8.48122,8.57094 25.10781,15.46353 43.75,18.13476 l 4.01562,0.57617 -0.47265,-2.15429 c -0.36362,-1.65555 -0.19658,-2.15235 0.72461,-2.15235 0.65877,0 1.19726,0.46262 1.19726,1.02735 0,1.80678 3.62638,5.04101 5.65235,5.04101 1.27222,0 1.93164,0.41695 1.93164,1.22266 0,1.24837 -0.72073,1.23355 -6.26953,-0.13086 -2.20894,-0.54315 -14.20508,2.47358 -14.20508,3.57227 0,0.76001 4.0747,5.42143 7.96093,9.10546 3.4953,3.31344 11.73927,7.89044 16.02344,8.89649 4.91967,1.15528 10.49127,0.91797 15.61328,-0.66406 9.32148,-2.87911 23.29809,-15.0745 27.54297,-24.03321 2.40284,-5.07113 3.66242,-11.03208 3.03711,-14.36523 -0.40874,-2.17878 -0.75059,-2.55655 -1.96875,-2.16992 -2.59008,0.82206 -1.58729,-1.06405 1.36719,-2.57032 4.97086,-2.53426 12.52757,-5.40625 14.22461,-5.40625 2.34691,0 9.20845,5.02727 19.90039,14.58008 9.35387,8.3573 11.3731,9.64314 6.82617,4.3457 -1.35552,-1.57927 -4.85384,-5.70803 -7.77344,-9.17382 -2.9196,-3.46579 -6.87954,-7.93054 -8.80078,-9.92188 l -3.49414,-3.62109 -4.46875,0.43555 c -6.21475,0.6055 -11.83573,2.27804 -17.86523,5.31445 -2.82983,1.42508 -5.49633,2.59179 -5.92383,2.59179 -1.63439,0 -0.66806,-1.28832 1.87695,-2.50195 1.45981,-0.69613 2.6543,-1.56063 2.6543,-1.92187 0,-1.50625 -4.6356,-6.88605 -8.16992,-9.48047 -7.27762,-5.34226 -15.31593,-7.31533 -23.51172,-5.77149 -4.34804,0.81903 -4.71853,1.03806 -4.25977,2.51368 0.49857,1.60367 0.48856,1.60436 -1.13476,0.15429 -1.61692,-1.44437 -1.66022,-1.4427 -3.70313,0.0918 -1.37743,1.03462 -1.98383,2.10656 -1.82031,3.21484 0.54487,3.69291 -3.48376,7.00541 -9.72461,7.9961 -1.87689,0.29794 -4.16804,1.02187 -5.0918,1.60742 -0.92377,0.58554 -2.8738,1.06445 -4.33203,1.06445 -1.68634,0 -3.17139,0.55965 -4.08203,1.53711 -0.80606,0.86521 -1.93963,1.34206 -2.5918,1.0918 -0.79807,-0.30624 -1.3089,0.15882 -1.64453,1.49609 -0.66155,2.63581 -2.1233,2.50025 -1.55859,-0.14453 0.40527,-1.89803 0.34718,-1.96565 -0.63867,-0.75781 -1.34785,1.65134 -2.18996,1.70786 -1.89649,0.12695 0.15131,-0.81512 -0.89492,-1.63048 -3.25976,-2.53711 -5.10951,-1.95888 -9.52036,-5.24457 -15.52735,-11.56836 -6.19983,-6.52681 -10.44736,-13.14297 -11.74414,-18.29297 -1.42697,-5.66702 -0.58203,-13.20394 2.01758,-17.99414 4.14653,-7.64065 14.13303,-15.96752 20.39453,-17.00586 5.24959,-0.87052 8.78018,-1.97498 8.38086,-2.62109 -0.21176,-0.34265 -2.05279,-0.84474 -4.0918,-1.11523 -2.039,-0.27048 -8.02278,-1.23139 -8.97656,-2.0586 -1.11177,-0.96424 -1.30259,-1.42931 -1.29297,-1.41015 z m 60.88086,77.46484 c 0.29821,-0.011 0.59491,0.0179 0.88477,0.11523 4.33139,2.8876 -0.42345,9.85469 -4.77735,7.67774 -0.33344,-0.1667 -1.01498,0.19009 -1.29296,-0.0879 -0.41026,-0.41026 -1.35393,-0.43053 -1.65235,-1.02735 -1.02362,-2.04724 2.55069,-6.25 4.33008,-6.25 0.71255,0 1.6132,-0.39461 2.50781,-0.42773 z"
       id="path4388"
       inkscape:connector-curvature="0" />
    <path
       style="fill:#000000"
       d="m 487.40292,571.22901 c -0.83417,-0.48192 -2.71106,-1.99421 -4.17086,-3.36065 -2.62847,-2.46038 -2.69325,-2.47623 -6.68684,-1.63703 -5.32317,1.11859 -14.23479,-0.65848 -25.16336,-5.01782 -6.50613,-2.59526 -8.00688,-3.48832 -8.20488,-4.88248 -0.19621,-1.38153 -0.72564,-1.70626 -2.78175,-1.70626 -3.6828,0 -4.93847,-0.68815 -4.93847,-2.70643 0,-2.55239 3.46097,-13.10788 4.78996,-14.60874 0.93827,-1.0596 1.18451,-6.78513 1.52203,-35.38933 0.3628,-30.7464 0.75704,-37.61312 2.47084,-43.03569 0.25425,-0.80445 0.026,-1.32733 -0.5796,-1.32769 -2.20411,-0.002 -10.38582,-4.53804 -14.78191,-8.19651 -4.76565,-3.96601 -11.22899,-11.56849 -11.25888,-13.24322 -0.009,-0.51185 -0.46319,-2.00613 -1.00901,-3.3206 -0.80498,-1.93863 -1.6587,-2.55773 -4.52075,-3.2784 -10.93154,-2.7526 -23.98288,-10.06407 -30.09004,-16.8567 -3.98873,-4.43643 -8.82632,-13.95835 -10.5723,-20.80968 -2.16351,-8.48972 -1.36288,-18.86182 2.08483,-27.00861 3.02781,-7.15461 11.70634,-17.34641 19.14627,-22.48479 2.05928,-1.42224 4.57127,-3.74021 5.48014,-5.21614 l 1.23091,-1.9989 c 9.91738,5.96959 19.4645,5.09203 19.4645,5.09203 -1.02523,2.46857 -1.35757,2.29868 -3.85212,3.43345 -1.87689,0.83054 -5.46004,1.9161 -7.96255,2.41235 -5.42257,1.07529 -10.3623,4.04277 -15.02179,9.02413 -11.90995,12.7327 -10.19908,26.83965 5.12279,42.24012 7.33786,7.3755 12.51225,10.49809 18.54461,11.19111 4.26149,0.48959 5.18864,0.0682 5.78072,-2.62755 0.59244,-2.69739 3.8507,-6.74353 5.43039,-6.74353 0.62844,0 2.10897,0.6881 3.29006,1.52912 2.06887,1.47317 2.16381,1.47756 2.5947,0.11994 0.6644,-2.09336 3.94962,-4.96353 4.5568,-3.98111 0.27715,0.44846 -0.0202,0.81538 -0.66086,0.81538 -1.45032,0 -3.78635,3.43235 -3.09612,4.54916 0.77508,1.25412 6.19619,0.46237 7.9978,-1.16806 1.02458,-0.92723 1.47556,-2.06448 1.26191,-3.18213 -0.24208,-1.26635 0.35846,-2.34589 2.2087,-3.97042 2.26267,-1.98665 2.39753,-2.31159 1.23051,-2.96469 -1.83841,-1.02882 -0.65739,-1.91133 1.21606,-0.90868 2.29297,1.22715 3.80619,0.98251 2.06601,-0.33401 -2.10846,-1.59515 -0.92813,-2.23795 1.35839,-0.73976 2.26381,1.48329 4.24141,1.03725 7.08486,-1.59797 1.10212,-1.0214 3.84799,-2.9122 6.10192,-4.20177 3.6347,-2.07957 4.5309,-2.28726 7.92622,-1.83686 8.91162,1.18217 27.0775,13.20448 28.97215,19.17398 0.38751,1.22095 1.10539,1.36481 5.56486,1.11517 7.17425,-0.40162 7.66428,0.003 23.22798,19.19535 10.42339,12.85335 13.87265,18.17742 14.41238,22.24606 0.27165,2.04779 0.28421,4.26972 0.0279,4.93762 -0.2563,0.6679 -2.50495,2.72954 -4.99702,4.58142 l -4.53102,3.36706 4.41496,3.03587 c 14.60984,10.0462 23.50311,24.32823 27.17978,43.64899 0.6437,3.38261 1.49639,12.29274 1.89487,19.80029 0.8613,16.22753 1.21752,18.77947 2.88852,20.6934 3.43127,3.9301 11.25414,5.10618 18.77949,2.82328 4.65749,-1.4129 5.61847,-1.42374 5.61847,-0.0634 0,1.82507 -5.46088,5.72851 -9.78398,6.99359 -4.75173,1.3905 -8.86824,1.03968 -15.65323,-1.33404 l -4.58291,-1.60333 -8.30884,4.16485 c -18.78959,9.4184 -39.13631,16.07117 -51.5341,16.85012 -3.33669,0.20964 -8.45547,0.56211 -11.37508,0.78327 -3.3545,0.25409 -5.86661,0.0796 -6.82504,-0.47412 z m 10.52875,-3.88557 c 1.86164,-0.55552 4.39247,-2.23644 6.27102,-4.16508 11.1006,-11.39661 4.68487,-34.33709 -9.60301,-34.33709 -5.49174,0 -9.9291,3.48751 -13.02582,10.23756 -1.37997,3.00798 -1.7395,5.124 -1.7395,10.23757 0,9.29999 2.96582,15.13662 9.08524,17.8794 2.87152,1.28705 5.07284,1.32311 9.01207,0.14764 z m 17.66976,-0.1638 c 11.33423,-2.40181 25.21001,-7.56332 40.25079,-14.97248 9.80202,-4.82851 9.89998,-4.84351 16.1054,-2.46587 4.43936,1.70096 12.55634,1.82209 15.47488,0.23093 2.13627,-1.16468 2.02541,-1.19013 -3.6095,-0.8285 -9.35784,0.60055 -14.64352,-2.16849 -16.31726,-8.54821 -0.4377,-1.66834 -1.00021,-7.98151 -1.25003,-14.02925 -0.90503,-21.90964 -3.99282,-35.79517 -10.34873,-46.53729 -5.85119,-9.88911 -19.98968,-22.77083 -23.14121,-21.08418 -0.76023,0.40686 -5.30597,3.66454 -10.10163,7.23929 -4.79566,3.57473 -10.7669,7.52423 -13.26942,8.77667 -5.74131,2.87334 -12.87808,4.06108 -17.91329,2.98121 -3.64791,-0.78233 -3.75509,-0.88937 -7.3029,-7.29375 -3.09848,-5.59325 -4.05015,-6.69992 -6.82359,-7.93489 -2.90922,-1.29542 -3.22294,-1.69487 -3.22294,-4.10367 0,-1.4677 -0.334,-3.29263 -0.74223,-4.05542 -0.69335,-1.29553 -1.1183,-1.19794 -6.45283,1.48199 -6.00251,3.01548 -13.95069,4.96223 -17.89578,4.38322 -3.38759,-0.49719 -3.77079,1.09672 -4.70067,19.55204 l -0.80455,15.96813 4.67039,5.92321 4.67039,5.92321 -0.4666,14.88807 c -0.41515,13.24625 -0.66483,15.38334 -2.26411,19.37925 -2.21329,5.53006 -2.2153,5.74637 -0.0533,5.74637 0.9593,0 2.09542,0.35124 2.52472,0.78054 0.53515,0.53516 1.47078,0.42243 2.97617,-0.35858 1.94422,-1.00867 2.37151,-1.00999 3.73158,-0.0114 1.83913,1.35022 2.4238,1.60017 5.12845,2.1924 2.93003,0.6416 4.42715,3.37425 4.60035,8.39692 l 0.14885,4.31664 4.71051,-0.29851 c 2.59077,-0.16418 4.929,-0.517 5.19604,-0.78405 0.26705,-0.26704 -0.10622,-2.26716 -0.82947,-4.44469 -2.67487,-8.05327 -0.12642,-20.52457 5.28596,-25.86778 1.33104,-1.31403 2.22497,-3.16095 2.49142,-5.14742 0.4599,-3.42889 2.2004,-3.80935 1.9521,-0.42672 -0.12286,1.67364 0.0946,1.96976 1.13751,1.54872 0.70917,-0.2863 2.65441,-0.71254 4.32275,-0.94718 1.66835,-0.23465 3.94226,-1.09649 5.05315,-1.91521 1.88256,-1.38744 13.35819,-4.29145 17.07408,-4.32075 0.90865,-0.007 2.10303,-0.45195 2.65418,-0.98843 2.29274,-2.2317 6.68963,-5.21838 6.68963,-4.54408 0,0.39998 -1.27564,1.63487 -2.83476,2.74419 l -2.83476,2.01693 3.21393,0 c 2.20188,0 3.21392,0.32428 3.21392,1.02981 0,0.72631 -2.06732,1.30376 -7.01462,1.95933 -8.54548,1.13237 -10.42715,1.55049 -10.42715,2.31705 0,0.32544 1.16009,0.80936 2.57798,1.07536 3.66067,0.68674 4.76096,2.23797 3.6587,5.15819 -0.74522,1.97429 -0.66029,2.59104 0.57266,4.15847 1.9464,2.47446 0.39066,6.76698 -2.20634,6.08762 -1.02065,-0.26701 -1.19048,0.72617 -1.19048,6.9619 0,6.4287 -0.23652,7.72158 -2.03673,11.13329 -1.1202,2.12297 -3.2649,4.9383 -4.766,6.25629 l -2.72927,2.39633 4.14767,0 c 2.28122,0 6.47343,-0.49284 9.31602,-1.09521 z m -50.87206,-28.60395 c -0.89348,-0.5188 -3.55596,-0.67616 -7.01462,-0.41458 -3.06601,0.23188 -5.57455,0.28929 -5.57455,0.12759 0,-0.68497 3.47035,-2.06336 6.72773,-2.67219 3.32656,-0.62176 3.27224,-0.63795 -1.0402,-0.31001 -4.2099,0.32013 -4.43666,0.25898 -3.03335,-0.81795 1.87024,-1.43528 8.44679,-1.23836 8.14743,0.24395 -0.10686,0.52913 0.66095,1.35172 1.70626,1.82799 1.0453,0.47627 1.90055,1.32305 1.90055,1.88173 0,1.20229 0.019,1.20089 -1.81925,0.13347 z m 52.39231,-10.84713 c -1.58028,-1.89052 -2.65151,-3.43732 -2.3805,-3.43732 0.96556,0 5.77739,5.30372 5.51795,6.08202 -0.14531,0.43595 -1.55716,-0.75417 -3.13745,-2.6447 z m -49.05638,31.87477 c 0,-4.78903 -1.85214,-7.97408 -4.65224,-8.00031 -0.94125,-0.009 -1.36957,1.0278 -1.77913,4.30573 -0.60942,4.87763 0.36139,6.2994 4.30129,6.2994 1.92112,0 2.13008,-0.25553 2.13008,-2.60482 z m -8.09988,-2.73756 c 0.55544,-4.68991 -0.39786,-7.54937 -2.51686,-7.54937 -2.94666,0 -4.39937,8.98739 -1.70626,10.55599 2.83201,1.64949 3.74899,0.99665 4.22312,-3.00662 z m -7.21995,-2.36671 c 0.26574,-4.01914 -1.05642,-5.61451 -4.03374,-4.86725 -2.14056,0.53724 -3.85291,3.46829 -3.12872,5.35549 0.49191,1.28191 4.88334,3.52022 6.17802,3.14891 0.41708,-0.11961 0.86008,-1.75633 0.98444,-3.63715 z m -9.22058,-4.80519 c 0.66206,-1.7253 -0.37227,-4.93194 -1.76297,-5.4656 -1.56974,-0.60236 -4.03015,2.32375 -4.03015,4.79297 0,1.56817 0.36014,1.81183 2.67799,1.81183 1.68264,0 2.84046,-0.42341 3.11513,-1.1392 z m 4.29668,-8.18032 c 1.7555,-4.38515 1.92917,-5.89758 2.15528,-18.76886 l 0.24592,-13.99938 -2.46362,-3.56342 c -1.35499,-1.95988 -2.8375,-3.79448 -3.29447,-4.0769 -0.59571,-0.36817 -0.76404,4.50346 -0.59478,17.2135 0.22852,17.16033 0.18276,17.81183 -1.43152,20.38118 -1.95999,3.11958 -2.06123,3.79169 -0.57115,3.79169 0.60616,0 1.71522,0.8424 2.4646,1.87201 0.74937,1.02961 1.41152,1.88274 1.47143,1.89585 0.0599,0.0131 0.96816,-2.12245 2.01831,-4.74567 z m 66.25748,-3.26959 c 0.51283,-1.33641 -1.28153,-2.87125 -2.23825,-1.91454 -0.72864,0.72864 0.0932,3.12858 1.07138,3.12858 0.38555,0 0.91065,-0.54632 1.16687,-1.21404 z m -2.49045,-6.05219 c 0.93477,-2.43595 0.48083,-3.3505 -1.66304,-3.3505 -3.05474,0 -4.25901,1.42763 -2.67796,3.17467 1.53382,1.69485 3.72406,1.78356 4.341,0.17583 z m -6.55396,-5.43593 c 0.18316,-0.55011 -0.32864,-0.94792 -1.2195,-0.94792 -1.65842,0 -2.65654,0.99033 -1.83058,1.81629 0.76302,0.76301 2.68951,0.21454 3.05008,-0.86837 z m 0.0257,-52.16473 c 3.55271,-1.067 15.74369,-8.97415 21.81374,-14.14853 2.10611,-1.79535 6.45707,-5.27377 9.66881,-7.72983 l 5.83954,-4.46556 0,-3.68439 c 0,-3.18926 -0.38215,-4.10972 -2.84377,-6.84948 -4.66227,-5.1891 -22.95676,-21.75874 -28.09777,-25.44865 -5.44144,-3.90554 -7.271,-4.02861 -14.38621,-0.96773 l -3.96423,1.70537 0,5.07734 c 0,9.79328 -4.2725,18.31526 -13.75216,27.43021 l -5.21564,5.01498 1.14218,2.73363 c 0.62821,1.50349 1.14219,3.60324 1.14219,4.6661 0,1.47314 0.65075,2.24279 2.73782,3.23805 2.0658,0.98511 3.56096,2.73264 6.09128,7.11948 1.84441,3.19765 3.76896,6.15507 4.27681,6.57204 2.16033,1.7738 9.15986,1.65538 15.54743,-0.26303 z m -44.414,-19.29746 c 9.32148,-2.87911 23.29791,-15.07475 27.54279,-24.03346 2.40284,-5.07113 3.66363,-11.0322 3.03832,-14.36535 -0.40874,-2.17878 -0.75202,-2.55692 -1.97018,-2.17029 -2.59008,0.82206 -1.58591,-1.0634 1.36857,-2.56967 4.97086,-2.53426 12.52684,-5.40605 14.22388,-5.40605 2.34691,0 9.20941,5.02776 19.90135,14.58057 9.35387,8.3573 11.37197,9.64193 6.82504,4.34449 -1.35552,-1.57927 -4.85336,-5.70705 -7.77296,-9.17284 -2.9196,-3.46579 -6.88028,-7.93071 -8.80152,-9.92205 l -3.49314,-3.62061 -4.46941,0.43547 c -6.21475,0.60551 -11.83618,2.27754 -17.86568,5.31395 -2.82983,1.42508 -5.49491,2.59105 -5.92241,2.59105 -1.63439,0 -0.6681,-1.28783 1.87691,-2.50146 1.45981,-0.69613 2.65419,-1.56127 2.65419,-1.92251 0,-1.50625 -4.63577,-6.88487 -8.17009,-9.47929 -7.27762,-5.34226 -15.31724,-7.31584 -23.51303,-5.772 -4.34804,0.81903 -4.71842,1.03756 -4.25966,2.51318 0.49857,1.60367 0.48982,1.60487 -1.1335,0.1548 -1.61692,-1.44437 -1.65997,-1.4433 -3.70288,0.0912 -1.37743,1.03462 -1.98509,2.1073 -1.82157,3.21558 0.54487,3.69291 -3.48375,7.00552 -9.7246,7.99621 -1.87689,0.29794 -4.16834,1.0208 -5.0921,1.60635 -0.92377,0.58554 -2.87268,1.06463 -4.33091,1.06463 -1.68634,0 -3.17243,0.55934 -4.08307,1.5368 -0.80606,0.86521 -1.93799,1.34254 -2.59016,1.09228 -0.79807,-0.30624 -1.30996,0.15928 -1.64559,1.49655 -0.66155,2.63581 -2.12329,2.50043 -1.55858,-0.14435 0.40527,-1.89803 0.34795,-1.96618 -0.6379,-0.75834 -1.34785,1.65134 -2.19063,1.70763 -1.89716,0.12672 0.15131,-0.81512 -0.89493,-1.62891 -3.25977,-2.53554 -5.10951,-1.95888 -9.52119,-5.24593 -15.52818,-11.56972 -6.19983,-6.52681 -10.44688,-13.14205 -11.74366,-18.29205 -1.42697,-5.66702 -0.58185,-13.20364 2.01776,-17.99384 4.14653,-7.64065 14.13346,-15.9685 20.39496,-17.00684 5.24959,-0.87052 8.78094,-1.97475 8.38162,-2.62086 -0.21176,-0.34265 -2.0533,-0.84429 -4.09231,-1.11478 -2.039,-0.27048 -8.02317,-1.23172 -8.97695,-2.05893 -2.22355,-1.92848 -0.76552,-1.85731 -1.38108,0.0821 -0.26587,0.83767 -3.13299,3.54001 -6.37139,6.00519 -14.15148,10.77258 -20.61093,22.16365 -20.67249,36.45538 -0.0159,3.6862 0.51995,8.55621 1.25156,11.37507 1.79296,6.90825 6.78895,16.14011 11.08277,20.47936 8.48122,8.57094 25.10918,15.46293 43.75137,18.13416 l 4.01465,0.57526 -0.4728,-2.15262 c -0.36362,-1.65555 -0.19622,-2.15261 0.72497,-2.15261 0.65877,0 1.19776,0.46205 1.19776,1.02678 0,1.80678 3.62536,5.03993 5.65133,5.03993 1.27222,0 1.93205,0.41787 1.93205,1.22358 0,1.24837 -0.72098,1.2333 -6.26979,-0.13111 -2.20893,-0.54315 -14.20534,2.47391 -14.20534,3.5726 0,0.76001 4.07632,5.42142 7.96255,9.10545 3.4953,3.31344 11.73767,7.88996 16.02184,8.89601 4.91967,1.15528 10.49162,0.91848 15.61363,-0.66355 z m -7.11375,-34.32151 c 0.52136,-0.21037 3.5842,0.98919 4.10556,1.19956 0.52135,0.21037 -0.0293,0.87594 -0.94793,0.3825 -2.68082,-1.44005 -3.67899,-1.37169 -3.15763,-1.58206 z m -0.12849,0.43789 c -1.06714,-1.06712 -0.43173,-3.84945 1.23715,-5.41728 1.96877,-1.84956 6.599,-3.0979 6.599,-1.77912 0,0.45612 -0.48107,0.64471 -1.06906,0.41908 -2.86259,-1.09847 -7.701,3.99094 -6.16179,6.48144 0.55216,0.89343 0.17606,1.07726 -0.6053,0.29588 z m 8.32628,-1.03521 c 1.12039,-1.15994 1.23358,-1.94858 1.40901,-1.82971 0.43718,0.29622 -2.78005,3.37049 -3.49964,3.37049 -0.31778,0 0.97024,-0.38083 2.09063,-1.54078 z m 5.67103,-7.1054 c -0.49643,-1.21016 -0.77794,-2.57426 -0.62559,-3.03133 0.4282,-1.28459 2.18415,2.48782 1.83595,3.94429 -0.23072,0.96506 -0.53373,0.73651 -1.21036,-0.91296 z m 1.88935,-1.78097 c -0.25745,-0.7299 -0.68836,-1.83897 -0.95757,-2.4646 -0.34009,-0.79033 0.008,-0.6966 1.13799,0.30712 1.64062,1.4563 2.198,3.48457 0.95758,3.48457 -0.36844,0 -0.88054,-0.59719 -1.138,-1.32709 z m -40.31556,-6.37802 c 2.44939,-1.11602 2.44308,-1.95272 -0.0232,-3.07644 -2.2906,-1.04366 -4.0259,-0.24401 -4.96202,2.28658 -0.52946,1.43124 -0.35537,1.66993 1.21797,1.66993 1.00965,0 2.70492,-0.39603 3.76725,-0.88007 z m 65.74366,-1.49656 c 2.87172,-1.04708 4.4383,-2.04371 4.4383,-2.82356 0,-3.32725 -17.86121,-16.03328 -22.53841,-16.03328 -1.62109,0 -6.38407,2.92762 -6.78562,4.17086 -0.13471,0.41708 1.31411,1.39959 3.21959,2.18334 4.75941,1.95761 11.77545,7.37221 14.33104,11.05992 1.1667,1.68355 2.29577,3.06101 2.50903,3.06101 0.21327,0 2.385,-0.72823 4.82607,-1.61829 z m -25.80465,-17.34016 3.12566,-3.03336 -2.59716,0 c -1.64432,0 -3.97314,0.8967 -6.34773,2.44415 l -3.75057,2.44415 3.03335,0.48159 c 1.66834,0.26488 3.11827,0.53002 3.22207,0.5892 0.1038,0.0591 1.59527,-1.25739 3.31438,-2.92573 z m -29.09701,15.16814 c 1.14641,-1.2856 1.24056,-3.52152 0.17063,-4.05213 -0.42752,-0.21202 -0.3422,-0.29904 0.18958,-0.19338 1.52316,0.30263 1.55995,3.13263 0.0556,4.27395 -1.16517,0.88397 -1.2257,0.87983 -0.41577,-0.0284 z m -0.75834,-5.81194 c 0.52136,-0.21037 1.37449,-0.21037 1.89585,0 0.52136,0.21037 0.0948,0.3825 -0.94792,0.3825 -1.04272,0 -1.46928,-0.17213 -0.94793,-0.3825 z"
       id="path4291"
       inkscape:connector-curvature="0"
       sodipodi:nodetypes="cssssssssscscssssssscscsssssssscsssssssssssssssscscsssssssscsssccssssssscsssssssssssssssssscccssssscsscscssssssscssscssssssscssscscccsssssssscsscsscsssssssssscsssssssscsssssscscsscsssscssccsscsssscsscssssccccssssssssscsssssssssssscsssssssssssscsssssssscsssssssssccsssscsssscscssscsscscscsssssssssssssscsscscscsssccssss" />
    <path
       style="fill:url(#radialGradient4281);fill-opacity:1;fill-rule:nonzero;stroke:#000000;stroke-width:2;stroke-miterlimit:4;stroke-dasharray:none;stroke-opacity:1"
       d="m 399.87433,338.55259 -1.73599,-1.14495 c -0.9548,-0.62972 -4.18689,-3.64039 -7.18243,-6.69038 -13.12222,-13.36075 -17.7423,-32.90965 -12.01679,-50.84648 2.52513,-7.91071 5.47087,-12.8392 11.48342,-19.21282 13.96541,-14.80408 33.51857,-20.00047 52.6176,-13.9835 20.99198,6.61334 35.64189,26.69118 35.64189,48.84758 0,20.05779 -11.3535,37.70036 -29.78027,46.27648 -7.53827,3.50845 -12.87054,4.58847 -22.16589,4.48957 l -17.50857,-2.82276 z"
       id="path4211"
       inkscape:connector-curvature="0" />
    <path
       style="fill:none;stroke:#000000;stroke-opacity:1"
       d="m 421.80667,302.72625 c 0,-0.62563 0.51188,-1.1375 1.13751,-1.1375 0.62563,0 1.13751,0.51187 1.13751,1.1375 0,0.62563 -0.51188,1.13751 -1.13751,1.13751 -0.62563,0 -1.13751,-0.51188 -1.13751,-1.13751 z"
       id="path4163"
       inkscape:connector-curvature="0" />
    <path
       style="fill:url(#linearGradient4223);fill-opacity:1;stroke:#000000;stroke-width:2;stroke-miterlimit:4;stroke-dasharray:none;stroke-opacity:1"
       d="m 452.97108,330.9431 c -0.67544,0.10817 4.37046,-1.27024 5.70031,-5.00567 1.0169,-2.85638 4.8836,-6.97922 5.604,-10.44477 0.25973,-1.24944 2.41194,-4.61319 1.55616,-5.46376 -0.76721,-0.76254 -3.54418,-0.0426 -5.20347,-0.10929 -1.73085,-0.0696 -2.33208,-0.92033 -2.44776,-1.50587 -0.0841,-0.20854 -0.11258,-0.63511 -0.0632,-0.94792 0.0494,-0.31282 -0.69508,-0.56876 -1.65438,-0.56876 -0.95929,0 -2.13752,-0.39335 -2.61829,-0.87411 -0.96237,-0.96237 -16.141,-1.64026 -20.86917,-0.93204 l -2.86067,0.4285 0.49306,3.91176 c 0.39155,3.10651 1.02558,4.42455 3.07997,6.40275 1.4901,1.43482 2.97624,2.26748 3.50513,1.96385 -0.50514,1.15789 -0.71446,1.3797 0.63846,1.73166 1.18213,1.42439 4.69507,6.80286 4.25836,5.13287 -0.052,1.45906 0.0801,3.3255 -0.47551,5.05229 -0.51935,1.61418 -8.87276,9.69136 -8.2868,10.01079 0.37337,0.20354 4.13981,-0.97394 4.95944,-1.19686 1.08512,-0.29513 1.90576,-0.66713 3.65422,-1.82653 0.6676,-0.44268 1.0275,-1.42307 1.76687,-1.92434 0.88636,-0.60094 2.60051,-0.77507 3.66336,-0.95078 1.21444,-0.20077 2.81647,-0.19055 3.50811,-0.65883 1.3643,-0.92372 1.23914,-2.4507 2.0918,-2.22494 z"
       id="path4161"
       inkscape:connector-curvature="0" />
    <path
       style="fill:url(#linearGradient4225);fill-opacity:1;stroke:#000000;stroke-width:2;stroke-miterlimit:4;stroke-dasharray:none;stroke-opacity:1"
       d="m 416.82028,308.50633 c 0.22632,-0.36619 -0.93131,-1.55441 -2.5725,-2.6405 -2.2709,-1.50281 -3.10951,-2.64383 -3.50926,-4.77468 -0.44183,-2.35516 -0.25364,-3.01993 1.18459,-4.18454 0.94042,-0.76151 2.57137,-1.38457 3.62432,-1.38457 2.40839,0 5.29008,-3.00315 7.64051,-7.96255 3.33479,-7.0364 3.3389,-7.06731 1.18796,-8.92651 -1.07549,-0.92962 -2.44356,-2.62867 -3.04015,-3.77565 -0.95261,-1.83146 -0.9382,-2.36874 0.11829,-4.41177 1.91028,-3.69407 1.24167,-5.50938 -2.30155,-6.24886 -1.66835,-0.34818 -4.05711,-0.69403 -5.30837,-0.76855 -2.15105,-0.1281 -2.27501,0.021 -2.27501,2.73563 0,2.88306 -1.12443,4.29834 -3.43338,4.32149 -2.01104,0.0202 -4.3904,-2.18023 -4.90855,-4.53936 -0.27471,-1.25074 -0.7283,-2.26735 -1.00797,-2.25915 -0.27967,0.008 -3.23479,0.49527 -6.56691,1.08236 -4.89375,0.86223 -6.39667,1.46067 -7.81793,3.11299 l -1.75951,2.04555 2.71914,2.49063 c 2.5478,2.3337 2.68746,2.69806 2.21644,5.78257 -0.27648,1.81056 -0.82149,3.69723 -1.21114,4.1926 -0.45317,0.57613 -0.22658,2.48895 0.62882,5.30837 1.55242,5.11682 8.44258,14.37939 11.2138,15.07492 0.97589,0.24493 2.15109,1.27221 2.61157,2.28285 0.46047,1.01063 1.10048,1.85257 1.42224,1.87098 0.32175,0.0184 2.29127,0.50725 4.3767,1.08632 4.53709,1.25984 6.21664,1.3813 6.76785,0.48943 z"
       id="path4159"
       inkscape:connector-curvature="0" />
    <path
       style="fill:none;stroke:#000000;stroke-opacity:1"
       d="m 461.24025,308.41383 c 0,-0.41709 -0.53202,-0.75834 -1.18226,-0.75834 -0.65025,0 -0.97136,0.34125 -0.71358,0.75834 0.25777,0.41709 0.78979,0.75834 1.18226,0.75834 0.39247,0 0.71358,-0.34125 0.71358,-0.75834 z"
       id="path4157"
       inkscape:connector-curvature="0" />
    <path
       style="color:#000000;clip-rule:nonzero;display:inline;overflow:visible;visibility:visible;opacity:1;isolation:auto;mix-blend-mode:normal;color-interpolation:sRGB;color-interpolation-filters:linearRGB;solid-color:#000000;solid-opacity:1;fill:url(#linearGradient4273);fill-opacity:1;fill-rule:nonzero;stroke:#000000;stroke-width:2;stroke-linecap:butt;stroke-linejoin:miter;stroke-miterlimit:4;stroke-dasharray:none;stroke-dashoffset:0;stroke-opacity:1;color-rendering:auto;image-rendering:auto;shape-rendering:auto;text-rendering:auto;enable-background:accumulate"
       d="m 405.8426,255.23906 c 1.53012,-1.13126 2.95553,-1.51661 4.80939,-1.30018 2.5892,0.30227 2.61511,0.27763 1.49913,-1.42558 -0.62459,-0.95324 -1.64738,-1.73317 -2.27287,-1.73317 -1.86179,0 -8.54671,3.94971 -8.54671,5.04972 0,1.5033 2.04003,1.23612 4.51106,-0.59079 z"
       id="path4155"
       inkscape:connector-curvature="0" />
    <path
       style="fill:#55a871;fill-opacity:0.93333333;stroke:#000000;stroke-opacity:1"
       d="m 421.13365,248.2871 c -0.61931,-0.61931 -0.84366,-0.53445 -0.84366,0.31913 0,1.50747 1.01974,2.52721 1.39661,1.39661 0.15988,-0.47965 -0.0889,-1.25174 -0.55295,-1.71574 z"
       id="path4153"
       inkscape:connector-curvature="0" />
    <path
       style="fill:none;fill-rule:evenodd;stroke:#000000;stroke-width:1px;stroke-linecap:butt;stroke-linejoin:miter;stroke-opacity:1"
       d="m 461.16072,414.50506 c 3.69391,2.93749 -4.31192,6.11238 -6.78572,6.60714"
       id="path4293"
       inkscape:connector-curvature="0" />
    <path
       style="fill:none;fill-rule:evenodd;stroke:#000000;stroke-width:1px;stroke-linecap:butt;stroke-linejoin:miter;stroke-opacity:1"
       d="m 454.64286,421.91577 c 3.71837,0.91752 10.16759,-1.12689 7.76786,-5.44642"
       id="path4295"
       inkscape:connector-curvature="0" />
    <path
       style="fill:none;fill-rule:evenodd;stroke:#000000;stroke-width:1px;stroke-linecap:butt;stroke-linejoin:miter;stroke-opacity:1"
       d="m 437.14351,396.7732 c 2.33855,-0.94419 4.08949,-1.00506 5.93465,0.37881"
       id="path4297"
       inkscape:connector-curvature="0" />
    <path
       style="fill:none;fill-rule:evenodd;stroke:#000000;stroke-width:1px;stroke-linecap:butt;stroke-linejoin:miter;stroke-opacity:1"
       d="m 439.03755,396.14186 c 0.87727,0.19839 0.8024,0.8024 1.13642,1.13642"
       id="path4299"
       inkscape:connector-curvature="0" />
    <path
       style="fill:none;fill-rule:evenodd;stroke:#000000;stroke-width:1px;stroke-linecap:butt;stroke-linejoin:miter;stroke-opacity:1"
       d="m 440.30024,401.06635 c -0.43807,0.73264 -0.98919,1.29438 -1.38896,1.89404"
       id="path4301"
       inkscape:connector-curvature="0" />
    <path
       style="fill:url(#linearGradient4478);fill-opacity:1;stroke:#000000;stroke-opacity:1"
       d="m 498.00483,567.68011 c 1.86164,-0.55552 4.39247,-2.23644 6.27102,-4.16508 11.1006,-11.39661 4.68487,-34.33709 -9.60301,-34.33709 -5.49174,0 -9.9291,3.48751 -13.02582,10.23756 -1.37997,3.00798 -1.7395,5.124 -1.7395,10.23757 0,9.29999 2.96582,15.13662 9.08524,17.8794 2.87152,1.28705 5.07284,1.32311 9.01207,0.14764 z"
       id="path4414"
       inkscape:connector-curvature="0" />
    <path
       style="fill:#888794;fill-opacity:1;stroke:#000000;stroke-opacity:1"
       d="m 428.45016,405.06367 c 2.44939,-1.11602 2.44308,-1.95272 -0.0232,-3.07644 -2.2906,-1.04366 -4.0259,-0.24401 -4.96202,2.28658 -0.52946,1.43124 -0.35537,1.66993 1.21797,1.66993 1.00965,0 2.70492,-0.39603 3.76725,-0.88007 z"
       id="path4376"
       inkscape:connector-curvature="0" />
    <path
       inkscape:connector-curvature="0"
       style="fill:url(#linearGradient4468);fill-opacity:1;stroke:#000000;stroke-opacity:1"
       d="m 494.82718,403.52554 c 2.87172,-1.04708 4.4383,-2.04371 4.4383,-2.82356 0,-3.32725 -17.86121,-16.03328 -22.53841,-16.03328 -1.62109,0 -6.38407,2.92762 -6.78562,4.17086 -0.13471,0.41708 1.31411,1.39959 3.21959,2.18334 4.75941,1.95761 11.77545,7.37221 14.33104,11.05992 1.1667,1.68355 2.29577,3.06101 2.50903,3.06101 0.21327,0 2.385,-0.72823 4.82607,-1.61829 z"
       id="path4374-8" />
    <path
       inkscape:connector-curvature="0"
       style="fill:url(#linearGradient4470);fill-opacity:1;stroke:#000000;stroke-opacity:1"
       d="m 469.02253,386.18538 3.12566,-3.03336 -2.59716,0 c -1.64432,0 -3.97314,0.8967 -6.34773,2.44415 l -3.75057,2.44415 3.03335,0.48159 c 1.66834,0.26488 3.11827,0.53002 3.22207,0.5892 0.1038,0.0591 1.59527,-1.25739 3.31438,-2.92573 z"
       id="path4372-2" />
    <ellipse
       style="color:#000000;clip-rule:nonzero;display:inline;overflow:visible;visibility:visible;opacity:1;isolation:auto;mix-blend-mode:normal;color-interpolation:sRGB;color-interpolation-filters:linearRGB;solid-color:#000000;solid-opacity:1;fill:url(#radialGradient4496-2);fill-opacity:1;fill-rule:nonzero;stroke:none;stroke-width:0.76124519;stroke-linecap:butt;stroke-linejoin:miter;stroke-miterlimit:4;stroke-dasharray:none;stroke-dashoffset:0;stroke-opacity:1;filter:url(#filter4953);color-rendering:auto;image-rendering:auto;shape-rendering:auto;text-rendering:auto;enable-background:accumulate"
       id="path4480-5"
       cx="594.13672"
       cy="-163.53847"
       rx="2.4253609"
       ry="3.6571093"
       transform="matrix(0.53452848,0.84515046,-0.85558705,0.51765896,-20.487147,-17.484705)" />
    <path
       style="fill:none;fill-rule:evenodd;stroke:#000000;stroke-width:2;stroke-linecap:butt;stroke-linejoin:miter;stroke-miterlimit:4;stroke-dasharray:none;stroke-opacity:1"
       d="m 416.68793,308.51112 5.55583,-1.89403 c 0,0 2.39912,-0.75762 3.283,-0.75762 0.88388,0 2.14657,0.25254 3.03046,0 0.88388,-0.25254 2.52538,-0.3788 2.52538,-0.3788"
       id="path4643"
       inkscape:connector-curvature="0" />
    <ellipse
       style="color:#000000;clip-rule:nonzero;display:inline;overflow:visible;visibility:visible;opacity:1;isolation:auto;mix-blend-mode:normal;color-interpolation:sRGB;color-interpolation-filters:linearRGB;solid-color:#000000;solid-opacity:1;fill:url(#radialGradient4496-2-0);fill-opacity:1;fill-rule:nonzero;stroke:none;stroke-width:0.76124519;stroke-linecap:butt;stroke-linejoin:miter;stroke-miterlimit:4;stroke-dasharray:none;stroke-dashoffset:0;stroke-opacity:1;filter:url(#filter4953-8);color-rendering:auto;image-rendering:auto;shape-rendering:auto;text-rendering:auto;enable-background:accumulate"
       id="path4480-5-9"
       cx="594.13672"
       cy="-163.53847"
       rx="2.4253609"
       ry="3.6571093"
       transform="matrix(0.53452848,0.84515046,-0.85558705,0.51765896,-0.03155764,0.25609911)" />
  </g>
</svg>
